name D:\school\WTK\thesis\model\3dpredictsim\Results\Batchsim_tmt_linear\Pog_s1_tmt_bCst_d02_k500_ig24_pas.mot
datacolumns 128
datarows 4
range 0.00000000 0.03326483
endheader
time	pelvis_tilt	pelvis_list	pelvis_rotation	pelvis_tx	pelvis_ty	pelvis_tz	hip_flexion_l	hip_adduction_l	hip_rotation_l	hip_flexion_r	hip_adduction_r	hip_rotation_r	knee_angle_l	knee_angle_r	ankle_angle_l	ankle_angle_r	subtalar_angle_l	subtalar_angle_r	tmt_angle_l	tmt_angle_r	mtp_angle_l	mtp_angle_r	lumbar_extension	lumbar_bending	lumbar_rotation	arm_flex_l	arm_add_l	arm_rot_l	arm_flex_r	arm_add_r	arm_rot_r	elbow_flex_l	elbow_flex_r	pro_sup_l	pro_sup_r	glut_med1_l/activation	glut_med2_l/activation	glut_med3_l/activation	glut_min1_l/activation	glut_min2_l/activation	glut_min3_l/activation	semimem_l/activation	semiten_l/activation	bifemlh_l/activation	bifemsh_l/activation	sar_l/activation	add_long_l/activation	add_brev_l/activation	add_mag1_l/activation	add_mag2_l/activation	add_mag3_l/activation	tfl_l/activation	pect_l/activation	grac_l/activation	glut_max1_l/activation	glut_max2_l/activation	glut_max3_l/activation	iliacus_l/activation	psoas_l/activation	quad_fem_l/activation	gem_l/activation	peri_l/activation	rect_fem_l/activation	vas_med_l/activation	vas_int_l/activation	vas_lat_l/activation	med_gas_l/activation	lat_gas_l/activation	soleus_l/activation	tib_post_l/activation	flex_dig_l/activation	flex_hal_l/activation	tib_ant_l/activation	per_brev_l/activation	per_long_l/activation	per_tert_l/activation	ext_dig_l/activation	ext_hal_l/activation	ercspn_l/activation	intobl_l/activation	extobl_l/activation	glut_med1_r/activation	glut_med2_r/activation	glut_med3_r/activation	glut_min1_r/activation	glut_min2_r/activation	glut_min3_r/activation	semimem_r/activation	semiten_r/activation	bifemlh_r/activation	bifemsh_r/activation	sar_r/activation	add_long_r/activation	add_brev_r/activation	add_mag1_r/activation	add_mag2_r/activation	add_mag3_r/activation	tfl_r/activation	pect_r/activation	grac_r/activation	glut_max1_r/activation	glut_max2_r/activation	glut_max3_r/activation	iliacus_r/activation	psoas_r/activation	quad_fem_r/activation	gem_r/activation	peri_r/activation	rect_fem_r/activation	vas_med_r/activation	vas_int_r/activation	vas_lat_r/activation	med_gas_r/activation	lat_gas_r/activation	soleus_r/activation	tib_post_r/activation	flex_dig_r/activation	flex_hal_r/activation	tib_ant_r/activation	per_brev_r/activation	per_long_r/activation	per_tert_r/activation	ext_dig_r/activation	ext_hal_r/activation	ercspn_r/activation	intobl_r/activation	extobl_r/activation	
          0.00000000	         -2.92401354	         -2.40779114	          6.01443937	          0.00000000	          0.85554905	         -0.00329895	        -18.40375622	         -2.02929619	          7.86576276	         32.14206907	          3.25025690	         -3.05368914	         -8.30483603	        -15.71949447	         -0.31955333	          5.95541253	         12.00079279	         -2.70661125	          2.03431148	          0.06430095	         22.08071544	         -0.10450923	         -2.26844693	          1.06254560	         -1.96579765	          7.97024530	        -13.48250219	         18.50448509	         -8.99133064	        -13.60330437	          8.01501302	         38.96406134	         13.74627274	         86.51662706	         86.51662706	          0.25187283	          0.09834353	          0.05508819	          0.31680619	          0.20601140	          0.09853123	          0.05000118	          0.05000017	          0.05000013	          0.07712534	          0.10630272	          0.11901016	          0.05000075	          0.05000052	          0.05000094	          0.05000066	          0.31998921	          0.05689055	          0.05000048	          0.05000213	          0.05000139	          0.05000093	          0.37909588	          0.61353810	          0.05000011	          0.05000038	          0.05000010	          0.21687056	          0.12326381	          0.05005484	          0.06387255	          0.29876414	          0.40564044	          0.27537900	          0.25350792	          0.29526025	          0.35424253	          0.05000001	          0.07018781	          0.17801927	          0.05000010	          0.05000002	          0.05000008	          0.05000001	          0.05000002	          0.05000004	          0.05924020	          0.05000578	          0.05000046	          0.05004452	          0.05000678	          0.05000592	          0.05924022	          0.05924015	          0.28585702	          0.05000048	          0.05000028	          0.11673525	          0.22671837	          0.12231236	          0.16794437	          0.11192433	          0.05000081	          0.05003421	          0.05924255	          0.05000106	          0.05824561	          0.11952774	          0.05643098	          0.05927615	          0.29481856	          0.05633465	          0.08811445	          0.05000017	          0.14073080	          0.14352623	          0.12103742	          0.05924016	          0.05878992	          0.05924021	          0.05000012	          0.05000194	          0.05000609	          0.53316392	          0.36944714	          0.21130578	          0.28815067	          0.57607205	          0.24643576	          0.06148663	          0.09292612	          0.09155253	
          0.01108828	         -2.91278613	         -2.51972190	          6.26086934	          0.01706450	          0.85443484	         -0.00306648	        -18.08709377	         -2.34457175	          7.67306132	         31.49744778	          3.70562734	         -2.86378925	        -10.61150592	        -15.67157560	         -1.32889249	          5.35923391	         13.10887776	         -3.21424886	          1.91716605	          0.07164499	         23.18606302	         -0.09718328	         -2.04590217	          1.31703578	         -2.05830270	          7.68400244	        -13.52057971	         18.70183359	        -10.14150057	        -13.59971561	          7.75690524	         40.19506721	         13.69990178	         86.51662706	         86.51662706	          0.21258601	          0.08300402	          0.05924026	          0.26739119	          0.17387800	          0.08316247	          0.05000214	          0.05000021	          0.05000029	          0.06509542	          0.08972188	          0.20797999	          0.17047925	          0.08954639	          0.05003616	          0.05000578	          0.27007777	          0.11191334	          0.05000640	          0.05000196	          0.05000116	          0.05000112	          0.31996492	          0.54571134	          0.05663457	          0.05924524	          0.05924037	          0.18304333	          0.13830879	          0.13830888	          0.13830882	          0.25216321	          0.34236906	          0.23242566	          0.21396607	          0.24920603	          0.29898826	          0.05000001	          0.05924003	          0.15025208	          0.05000006	          0.05000001	          0.05000008	          0.06039108	          0.07018810	          0.05000006	          0.05000002	          0.05000005	          0.05658333	          0.05000005	          0.05000007	          0.05000008	          0.05000003	          0.05000006	          0.24126954	          0.05000007	          0.05021507	          0.09852732	          0.19135668	          0.35987249	          0.23873692	          0.09446706	          0.05000012	          0.05000638	          0.05000219	          0.05923936	          0.05924614	          0.14946931	          0.05000013	          0.05003095	          0.59454115	          0.16193423	          0.14186226	          0.07018813	          0.24554734	          0.24503823	          0.21049438	          0.05000000	          0.05000001	          0.05000000	          0.05000016	          0.07018613	          0.05000055	          0.63383816	          0.31182144	          0.21248808	          0.50397708	          0.62267131	          0.27724583	          0.05189602	          0.07843160	          0.07727227	
          0.02217656	         -2.89693198	         -2.63422328	          6.47810774	          0.03439360	          0.85324527	         -0.00285224	        -17.67714891	         -2.64427011	          7.46373773	         30.68409829	          4.08564714	         -2.58275737	        -13.07100649	        -16.04950461	         -2.49824211	          4.81952300	         14.14036356	         -3.75224354	          1.75361341	         -0.06416723	         24.08686619	         -0.15023950	         -1.80381225	          1.57816080	         -2.13921433	          7.30525916	        -13.56173857	         18.81622834	        -11.28883720	        -13.60258506	          7.55923452	         41.41586055	         13.66609495	         86.51662706	         86.51662706	          0.31333359	          0.07005716	          0.05000029	          0.22568407	          0.14675674	          0.07019090	          0.05000134	          0.05000017	          0.05000017	          0.05494192	          0.07572729	          0.17554388	          0.26482926	          0.07557937	          0.05923895	          0.05000542	          0.22795213	          0.09445890	          0.05000147	          0.05001549	          0.05002149	          0.05115005	          0.27005715	          0.49795070	          0.05923989	          0.05000465	          0.05000016	          0.15449243	          0.11673560	          0.11673566	          0.11673560	          0.21283105	          0.28896669	          0.19617214	          0.18059188	          0.21033520	          0.25235243	          0.05000015	          0.05000044	          0.18318100	          0.05000009	          0.12905467	          0.05000025	          0.07571609	          0.05924024	          0.05000006	          0.30834443	          0.27475949	          0.29368104	          0.05000111	          0.05000048	          0.17887236	          0.09312950	          0.10663171	          0.21036585	          0.05000024	          0.05000043	          0.08315939	          0.19942812	          0.30374007	          0.20150178	          0.14554654	          0.05000030	          0.07018651	          0.14876449	          0.05000011	          0.05000504	          0.12615547	          0.05733202	          0.05000042	          0.50180525	          0.13667596	          0.23280203	          0.05924027	          0.20724716	          0.20681747	          0.17766172	          0.05924023	          0.05924023	          0.05924022	          0.05000016	          0.05923984	          0.05924021	          0.53610220	          0.41485379	          0.20256217	          0.42536762	          0.64326184	          0.23400140	          0.05658133	          0.08315915	          0.06521942	
          0.03326483	         -2.87845316	         -2.74466190	          6.66025206	          0.05177098	          0.85200558	         -0.00262377	        -17.14872733	         -2.91897428	          7.24888252	         29.73668194	          4.41985519	         -2.28518608	        -15.70435591	        -16.42699351	         -3.72130626	          4.48422746	         15.07955044	         -4.31457829	          1.48644941	         -0.01418307	         24.58570477	         -0.17198848	         -1.56307691	          1.83606890	         -2.20993578	          6.87014964	        -13.60882055	         18.86009354	        -12.37886709	        -13.60815192	          7.43911464	         42.60203374	         13.60720118	         86.51662706	         86.51662706	          0.26446020	          0.05912974	          0.05000002	          0.21584140	          0.12386582	          0.05924263	          0.05000203	          0.05000015	          0.05000014	          0.05000009	          0.06391570	          0.19321108	          0.22352178	          0.06379076	          0.05000067	          0.05000101	          0.19239715	          0.07972616	          0.05000022	          0.05000047	          0.05000029	          0.05000017	          0.22793393	          0.43617638	          0.05000003	          0.05000018	          0.05000010	          0.13039486	          0.09852733	          0.09852738	          0.09852733	          0.17963388	          0.24389397	          0.16557341	          0.15242338	          0.17752743	          0.21299084	          0.17028058	          0.12628493	          0.15460871	          0.29939695	          0.23816041	          0.13287051	          0.10585636	          0.05000001	          0.05000002	          0.40498240	          0.42966269	          0.46258394	          0.25892680	          0.23423332	          0.31726556	          0.08150785	          0.12473120	          0.17755321	          0.07018850	          0.05000053	          0.07018830	          0.16832156	          0.25636318	          0.22419624	          0.17187253	          0.05000016	          0.05923931	          0.12556126	          0.25969187	          0.19247385	          0.16750642	          0.05000007	          0.05000008	          0.42353421	          0.11535749	          0.19649106	          0.05000005	          0.20936045	          0.25101903	          0.19983558	          0.05000002	          0.05000004	          0.05000000	          0.05000000	          0.05000011	          0.05000009	          0.68939544	          0.35014553	          0.17096697	          0.66960299	          0.68962954	          0.40842587	          0.08419046	          0.07018810	          0.05504657	
